<svg xmlns="http://www.w3.org/2000/svg" viewBox="0 0 64 64">
  <defs>
    <radialGradient id="bg" cx="50%" cy="40%" r="70%">
      <stop offset="0%" stop-color="#0a1830"/>
      <stop offset="100%" stop-color="#05080f"/>
    </radialGradient>
    <linearGradient id="spark" x1="0" y1="0" x2="1" y2="1">
      <stop offset="0%" stop-color="#4da3ff"/>
      <stop offset="100%" stop-color="#0a84ff"/>
    </linearGradient>
  </defs>
  <rect width="64" height="64" rx="14" fill="url(#bg)"/>
  <!-- four-point sparkle (HOLOSYN logo motif) -->
  <path d="M32 12 C34 24, 40 30, 52 32 C40 34, 34 40, 32 52 C30 40, 24 34, 12 32 C24 30, 30 24, 32 12 Z"
        fill="url(#spark)"/>
  <!-- small accent sparkle -->
  <path d="M47 14 C47.8 18, 50 20, 54 21 C50 22, 47.8 24, 47 28 C46.2 24, 44 22, 40 21 C44 20, 46.2 18, 47 14 Z"
        fill="#7dc0ff" opacity="0.85"/>
</svg>
